<?xml version="1.0" encoding="utf-8"?>
<!-- Generator: Adobe Illustrator 19.0.0, SVG Export Plug-In . SVG Version: 6.00 Build 0)  -->
<svg version="1.0" id="Layer_1" xmlns="http://www.w3.org/2000/svg" xmlns:xlink="http://www.w3.org/1999/xlink" x="0px" y="0px"
	 viewBox="0 0 512 512" style="enable-background:new 0 0 512 512;" xml:space="preserve">
<style type="text/css">
	.st0{fill:#D20A0A;}
</style>
<g>
	<path class="st0" d="M10.9,503.7c3.8-15.4,7.5-30.4,11.4-45.3c0.3-1,2.3-2.2,3.6-2.3c3.5-0.3,7-0.1,11.2-0.1c0-2.3,0-4.4,0-6.5
		c0-138.7,0-277.3,0-416c0-17.4,14.7-29.1,30.6-24.6c10.5,3,17.3,12.4,17.4,24.1c0,46.7,0,93.3,0,140c0,20.5,0,41,0,61.5
		c0,1.6,0,3.3,0,5.2c18.6,0,36.9,0,55.6,0c0-4.9,0-10,0-15.7c-2.6,0-5.4,0.1-8.2,0c-7.7-0.3-14.7-5.9-15.1-13.4
		c-0.5-11-0.6-22,0.5-32.9c0.6-5.9,3.8-11.5,5.6-16.5c-4.4-2.3-9.9-4-14.1-7.4c-7.9-6.2-10.2-16.5-6.9-25.8
		c3.3-9.3,12.1-15.7,22.1-15.9c5.6-0.1,11.3,0,17,0c1.5-7.8,2.7-15.2,4.3-22.5c3.4-15.4,15.8-25.5,31.5-25.5
		c34.5-0.1,69-0.1,103.5,0c15.7,0,28.1,10.1,31.5,25.5c1.6,7.3,2.8,14.7,4.3,22.5c5.1,0,10.1,0,15,0c13.8,0.1,24.3,9.1,25.4,21.8
		c1.1,13-7.7,23.8-21.5,26.1c-0.5,0.1-1,0.2-1.6,0.3c2.3,5,4.5,9.9,6.4,14.1c16.2-4.2,32.3-8.4,48.4-12.6c1-5.4,0.4-9.8-4.2-14.1
		c-7.8-7.2-11.3-16.7-11.4-27.4c-0.1-29.2-0.1-58.3,0-87.5c0-14,10.5-24.7,24.1-24.7c13.4,0,23.8,10.8,23.9,24.8
		c0,5.2,0,10.3,0,15.6c19.6,5.8,30.6,18.7,32.3,39.4c7.7,0,15.3,0,23.4,0c0,5.4,0,10.4,0,16.1c-7.7,0-15.4,0-23.6,0
		c0,5.8,0.1,11.1,0,16.4c-0.1,10.5-3.9,19.5-11,27.1c-5.4,5.8-5.4,5.8-4.7,14.3c12.1,3,24.3,6.1,36.5,9.2
		c18.1,4.5,27.1,15.9,27.1,34.3c0,19,0,38,0,57c0,11.3-6.4,17.7-17.6,17.7c-4.6,0-9.2,0-14.2,0c0,74.7,0,149,0,223.6
		c-37.4,0-74.5,0-112.1,0c0-66.4,0-132.8,0-199.4c-90.8,0-181.1,0-271.7,0c0,50.4,0,100.8,0,151.5c1.3,0.1,2.6,0.2,3.9,0.2
		c10.1,0.1,10.1,0.1,12.5,9.6c3.1,12.6,6.2,25.2,9.4,38.1C77.8,503.7,44.7,503.7,10.9,503.7z M306,143.8c-3.1-17.2-6-33.9-9.1-50.5
		c-1.5-8-7.7-13.3-15.8-13.3c-34.6-0.1-69.3-0.1-103.9,0c-8.1,0-14.2,5.2-15.9,13.2c-0.7,3.3-1.2,6.5-1.8,9.8
		c-2.4,13.5-4.8,27-7.3,40.8C203.6,143.8,254.5,143.8,306,143.8z M85.5,256.1c0,10.5,0,21,0,31.6c90.6,0,180.9,0,271.2,0
		c0-2.7,0-5.1,0-7.7c-5.4,0-10.4,0.1-15.4,0c-9.4-0.2-16-6.8-16.2-16.1c-0.1-2.6,0-5.2,0-7.8C244.8,256.1,165.4,256.1,85.5,256.1z
		 M69.1,455.7c0-1.8,0-3.3,0-4.8c0-138.8,0-277.6,0-416.3c0-1.3,0.1-2.7-0.2-4c-0.9-4-3.5-6.4-7.7-6.6c-3.9-0.2-7.4,2.7-8,6.8
		c-0.2,1.5-0.1,3-0.1,4.5c0,138.3,0,276.6,0,414.8c0,1.8,0,3.6,0,5.6C58.5,455.7,63.4,455.7,69.1,455.7z M404.8,487.7
		c0-56.2,0-111.7,0-167.5c-10.6,0-21,0-31.4,0c0,56,0,111.7,0,167.5C384,487.7,394.3,487.7,404.8,487.7z M452.7,487.7
		c0-56.1,0-111.8,0-167.4c-10.7,0-21.1,0-31.4,0c0,56,0,111.6,0,167.4C431.8,487.7,442.1,487.7,452.7,487.7z M405,159.7
		c0,4.6,0,9.5,0,14.4c-1.3,0.4-2.1,0.7-2.9,0.9c-16,4-31.9,8-47.9,12c-6.8,1.7-12.1,5.7-12.6,12.5c-0.9,10.7-0.2,21.5-0.2,32.2
		c5.4,0,10.4,0,15.8,0c0-10.6,0-20.9,0-31.3c5.4,0,10.5,0,16,0c0,10.7,0,21.1,0,31.4c5.5,0,10.4,0,15.9,0c0-10.6,0-21,0-31.4
		c16.3,0,32,0,48,0c0,10.6,0,20.9,0,31.3c5.4,0,10.5,0,16.1,0c0-10.7,0-21.1,0-31.5c5.5,0,10.4,0,15.9,0c0,10.6,0,21,0,31.4
		c5.6,0,10.6,0,15.9,0c0-9.3,0-18.3,0-27.3c0-9.6-4.3-15.1-13.7-17.5c-15.5-3.9-30.9-7.9-46.5-11.6c-3.1-0.7-4.1-2-3.9-5
		c0.2-3.6,0.1-7.2,0.1-10.5C415.5,159.7,410.6,159.7,405,159.7z M274.7,160.3c-30.8,0-60.8,0-91.3,0c4,16.1,8,31.9,11.9,47.5
		c22.8,0,45.1,0,67.6,0C266.8,191.9,270.7,176.3,274.7,160.3z M373.1,303.6c27,0,53.4,0,79.7,0c0-8,0-15.6,0-23.2
		c-13.4-2.2-27.8,3.7-39.8-6.5c-12,10.3-26.7,4.1-40,6.6c0,6.8,0,13.2,0,19.7C373.1,301.3,373.1,302.2,373.1,303.6z M389.1,104.2
		c0,5.7-0.1,11,0,16.3c0.3,12,9.5,22,21.3,23.3c11.9,1.3,23.3-6.3,25.7-18.2c1.4-6.9,0.9-14.1,1.3-21.5
		C421,104.2,405.4,104.2,389.1,104.2z M133.1,207.7c15.4,0,30.3,0,45.6,0c-4-16.1-8-31.8-11.9-47.6c-4.3,0-8.1-0.2-11.9,0
		c-11.4,0.9-21.1,10.3-21.7,21.8C132.8,190.3,133.1,198.8,133.1,207.7z M291.3,160c-4,16.1-7.9,31.8-11.8,47.6c15.6,0,30.5,0,45.6,0
		c0-8.7,0.3-17-0.1-25.3c-0.5-11.6-10.2-21.4-21.8-22.2C299.4,159.8,295.5,160,291.3,160z M260.8,224.3c-21.5,0-42.5,0-63.4,0
		c0,5.4,0,10.5,0,15.4c21.3,0,42.2,0,63.4,0C260.8,234.5,260.8,229.6,260.8,224.3z M341.3,264c18.5,0,36.6,0,54.7,0
		c5.5,0,9-3.1,9.1-7.8c0.1-4.8-3.6-8.1-9.3-8.1c-11.3-0.1-22.6,0-33.9,0c-6.8,0-13.5,0-20.5,0C341.3,253.4,341.3,258.3,341.3,264z
		 M484.8,248c-18.4,0-36.2,0-54,0c-6.2,0-9.9,3.2-9.8,8.1c0.1,5,3.7,7.8,10.1,7.9c16.5,0,32.9,0,49.4,0c1.4,0,2.9-0.2,4.3-0.3
		C484.8,258.3,484.8,253.4,484.8,248z M436.9,87.7c-0.5-14-11.3-24.2-24.7-23.7c-12.7,0.4-23.1,11.1-22.8,23.7
		C405.1,87.7,420.9,87.7,436.9,87.7z M31.5,487.6c20.1,0,39.5,0,59.2,0c-1.4-5.5-2.7-10.5-3.9-15.5c-17.5,0-34.5,0-51.5,0
		C34,477.3,32.8,482.3,31.5,487.6z M405,48.1c0-5.3,0.1-10.8,0-16.3c-0.2-4.4-3.5-7.6-7.5-7.8c-4.1-0.2-8.1,2.8-8.3,7
		c-0.3,8-0.1,16.1-0.1,24.3C394.6,52.8,399.5,50.6,405,48.1z M180.8,224.3c-8.1,0-15.8,0-23.4,0c0,5.4,0,10.4,0,15.4
		c8,0,15.6,0,23.4,0C180.8,234.5,180.8,229.6,180.8,224.3z M277.3,239.6c8.3,0,16,0,23.5,0c0-5.3,0-10.3,0-15.3c-8,0-15.7,0-23.5,0
		C277.3,229.5,277.3,234.4,277.3,239.6z M413.5,237.6c1.3-0.8,3-1.7,4.4-2.8c1.2-0.9,2.9-2.1,3-3.2c0.3-5.1,0.1-10.1,0.1-15.2
		c-5.7,0-10.7,0-16.2,0C406.4,224.2,400.5,234.2,413.5,237.6z M138.7,128c-4.9,0-9.4-0.2-13.8,0c-4.4,0.2-7.6,3.5-7.7,7.6
		c-0.2,4.3,3.1,7.9,7.7,8.2c3.6,0.2,7.3,0,11.1,0C136.8,138.5,137.7,133.5,138.7,128z M322.3,144c2.7,0,5,0,7.3,0
		c1.3,0,2.7,0.1,4-0.1c4.3-0.5,7.6-3.8,7.4-7.9c-0.1-4.4-2.6-7.4-6.9-7.8c-4.7-0.5-9.5-0.1-14.6-0.1
		C320.5,133.5,321.3,138.4,322.3,144z M324.9,224.2c-2.8,0-5.1,0-7.5,0c0,5.3,0,10.3,0,15.4c2.7,0,5,0,7.5,0
		C324.9,234.4,324.9,229.5,324.9,224.2z"/>
	<path class="st0" d="M283.4,427.6c-2.8,3.2-5.7,6.5-8.6,9.9c-3.8-3.9-7.3-7.4-10.3-10.5c9.7-9.7,19.4-19.4,28.8-28.8
		c9.1,9.1,18.8,18.9,28.6,28.7c-3.2,3.1-6.8,6.6-10.6,10.4c-3.1-3-6.3-6-9.7-9.2c0.2,53.5-45.3,79.7-79.2,75.6
		c-40.1-4.8-68.6-38.6-65.1-77.2c3.7-41.8,38.7-66.7,71.5-66.3c0,5.1,0,10.1,0,15.6c-19,1-34.6,8.6-45.7,24.4
		c-8.8,12.6-11.7,26.6-9.1,41.8c4.9,28.6,33.2,49.7,61.6,45.7C265.7,483.4,287.9,456.7,283.4,427.6z"/>
	<path class="st0" d="M221,450c-9.4-9.4-19-19-28.8-28.8c3.3-3.1,6.9-6.5,10.9-10.2c5.4,5.8,11.1,11.9,16.9,18.1
		c30.9-30.9,60.8-60.8,90.9-90.9c4,4.4,7.4,8.1,10.5,11.5C288.1,382.9,254.5,416.5,221,450z"/>
	<path class="st0" d="M149.4,176.2c5.2,0,10.1,0,15.4,0c0,5.2,0,10.3,0,15.6c-5.1,0-10.1,0-15.4,0
		C149.4,186.7,149.4,181.7,149.4,176.2z"/>
	<path class="st0" d="M293.2,191.7c0-5.3,0-10.1,0-15.3c5.1,0,10.2,0,15.6,0c0,4.9,0,9.9,0,15.3
		C303.7,191.7,298.6,191.7,293.2,191.7z"/>
</g>
</svg>
