<?xml version="1.0" encoding="utf-8"?>
<!-- Generator: Adobe Illustrator 19.0.0, SVG Export Plug-In . SVG Version: 6.00 Build 0)  -->
<svg version="1.0" id="Layer_1" xmlns="http://www.w3.org/2000/svg" xmlns:xlink="http://www.w3.org/1999/xlink" x="0px" y="0px"
	 viewBox="0 0 512 512" style="enable-background:new 0 0 512 512;" xml:space="preserve">
<style type="text/css">
	.st0{fill:#D20A0A;}
</style>
<g id="XMLID_1689_">
	<g id="XMLID_454_">
		<path id="XMLID_521_" class="st0" d="M288.3,214c0-17.8-14.5-32.3-32.3-32.3s-32.3,14.5-32.3,32.3s14.5,32.3,32.3,32.3
			S288.3,231.8,288.3,214z M243.7,214c0-6.8,5.5-12.3,12.3-12.3c6.8,0,12.3,5.5,12.3,12.3s-5.5,12.3-12.3,12.3
			S243.7,220.8,243.7,214z"/>
		<path id="XMLID_524_" class="st0" d="M511.2,360.4l-16.4-39.3l8.9-13.6c7.4-11.3,9.6-25.2,6-38.2l-8.3-30.1
			c-3.6-13.2-12-24.6-23.5-32c-1.9-1.2-4-1.7-6.2-1.6C467,107.2,395.5,23.3,298.1,4.1c-5.4-1.1-10.7,2.5-11.7,7.9s2.5,10.7,7.9,11.7
			C385.6,41.8,452,122.6,452,216c0,2.8-0.1,5.5-0.2,8.3l-20.9,11.2c0.7-6.5,1.1-13,1.1-19.5c0-10.9-1-21.5-2.9-31.8
			c0-0.3-0.1-0.6-0.2-0.8C413.6,101.9,341.9,40,256,40c-85.9,0-157.7,61.9-173,143.5c-0.1,0.2-0.1,0.5-0.1,0.7
			C81,194.5,80,205.1,80,216c0,6.5,0.4,13,1.1,19.5l-20.9-11.2c-0.1-2.8-0.2-5.5-0.2-8.3c0-93.5,66.5-174.4,158-192.3
			c5.4-1.1,9-6.3,7.9-11.7c-1.1-5.4-6.3-9-11.7-7.9C116.7,23.2,45,107.1,40.3,205.7c-2.2-0.2-4.4,0.4-6.2,1.6
			c-11.5,7.5-19.8,18.8-23.5,32l-8.3,30.1c-3.6,13-1.4,26.9,6,38.2l8.9,13.6L0.8,360.4c-2.1,5.1,0.3,11,5.4,13.1
			c1.3,0.5,2.6,0.8,3.9,0.8c3.9,0,7.6-2.3,9.2-6.1l15.3-36.5l43.5,9.2L40.3,499.7c-1.3,5.4,2,10.8,7.4,12c0.8,0.2,1.6,0.3,2.3,0.3
			c4.5,0,8.6-3.1,9.7-7.7l34.5-145.2C135,405.1,193.9,432,256,432c34.4,0,68.6-8.3,99-24c23.7-12.2,45.1-29,62.8-48.9l34.5,145.2
			c1.1,4.6,5.2,7.7,9.7,7.7c0.8,0,1.5-0.1,2.3-0.3c5.4-1.3,8.7-6.7,7.4-12L434,340.8l43.5-9.2l15.3,36.5c1.6,3.8,5.3,6.1,9.2,6.1
			c1.3,0,2.6-0.3,3.9-0.8C511,371.4,513.4,365.5,511.2,360.4z M468.7,238c1.5-0.8,2.8-2,3.8-3.5l2.3-3.7c3.4,4,5.9,8.7,7.3,13.8
			l8.3,30.1c2.1,7.4,0.8,15.4-3.4,21.9l-9.6,14.6l-52.2,11l-9.2-9.5c-7-7.2-10.8-16.7-10.8-26.7v-24.1c0-3,2-5.5,4.9-6.3l2.4-0.6
			c7.1,4.1,16.1,4.5,23.5,0.5L468.7,238z M125.7,254.1h59.4c18.2,0,32.9,14.8,32.9,32.9v80.3c-37.9-9.4-71.1-32.9-93-66.7
			c1.2-4.7,1.9-9.7,1.9-14.7v-24.1C126.9,259.2,126.4,256.6,125.7,254.1z M185.1,234.1h-84c-0.7-6-1-12.1-1-18.1
			c0-7.5,0.5-15,1.6-22.2l101.5-24.5c34.6-8.3,71.2-8.3,105.7,0l101.5,24.5c1,7.3,1.6,14.7,1.6,22.2c0,6.1-0.4,12.1-1.1,18.1h-84
			c-29.2,0-52.9,23.7-52.9,52.9V371c-5.9,0.7-11.9,1-18,1s-12.1-0.4-18-1v-83.9C238,257.9,214.3,234.1,185.1,234.1z M294,287.1
			c0-18.2,14.8-32.9,32.9-32.9h59.4c-0.8,2.5-1.2,5.1-1.2,7.8V286c0,5,0.6,9.9,1.9,14.7c-21.9,33.8-55.1,57.2-93,66.7V287.1z
			 M256,60c70.8,0,130.7,47.4,149.7,112.1l-92.1-22.2c-37.7-9.1-77.5-9.1-115.1,0l-92.1,22.2C125.3,107.4,185.2,60,256,60z
			 M21.6,274.7l8.3-30.1c1.4-5.1,3.9-9.8,7.3-13.8l2.3,3.7c0.9,1.5,2.2,2.7,3.8,3.5l32.8,17.5c7.5,4,16.4,3.6,23.5-0.5l2.4,0.6
			c2.9,0.7,4.9,3.3,4.9,6.3V286c0,10-3.8,19.5-10.8,26.7l-9.2,9.5l-52.2-11L25,296.6C20.8,290.1,19.5,282.2,21.6,274.7z M256,412
			c-60.6,0-117.8-28.2-154.8-75.9l9.2-9.5c1.7-1.7,3.2-3.5,4.6-5.4c14.6,19.5,33.2,35.9,54.4,47.9c26.3,14.9,56.3,22.8,86.7,22.8
			c30.4,0,60.4-7.9,86.7-22.8c21.2-12,39.8-28.4,54.3-47.9c1.4,1.9,3,3.7,4.6,5.4l9.2,9.5C373.9,383.7,316.3,412,256,412z"/>
		<path id="XMLID_531_" class="st0" d="M256,20h0.2c5.5,0,10-4.5,10-10s-4.5-10-10-10H256c-5.5,0-10,4.5-10,10S250.5,20,256,20z"/>
	</g>
</g>
</svg>
