<?xml version="1.0" encoding="utf-8"?>
<!-- Generator: Adobe Illustrator 19.0.0, SVG Export Plug-In . SVG Version: 6.00 Build 0)  -->
<svg version="1.0" id="Layer_1" xmlns="http://www.w3.org/2000/svg" xmlns:xlink="http://www.w3.org/1999/xlink" x="0px" y="0px"
	 viewBox="0 0 106.9 107.3" style="enable-background:new 0 0 106.9 107.3;" xml:space="preserve">
<style type="text/css">
	.st0{fill:#D20A0A;}
</style>
<g id="XMLID_40_">
	<rect id="XMLID_44_" x="33.3" y="33.9" class="st0" width="19.2" height="3.6"/>
	<g id="XMLID_14_">
		<path id="XMLID_54_" class="st0" d="M75.8,13.5h-6.4c0,0.1,0,0.2,0,0.2v4.4h6.4c2.7,0,4.9,2.2,4.9,4.9v69.3c0,2.7-2.2,4.9-4.9,4.9
			H31.2c-2.7,0-4.9-2.2-4.9-4.9V23c0-2.7,2.2-4.9,4.9-4.9h6.4v-4.4c0-0.1,0-0.2,0-0.2h-6.4c-5.2,0-9.5,4.3-9.5,9.5v69.3
			c0,5.2,4.3,9.5,9.5,9.5h44.6c5.2,0,9.5-4.3,9.5-9.5V23C85.3,17.7,81,13.5,75.8,13.5"/>
		<path id="XMLID_3_" class="st0" d="M57.5,32.1v5.1c-0.3-0.1-0.5-0.1-0.8-0.1l-0.2,0c-0.1,0-0.1,0-0.2,0.1c-0.1,0.1-0.1,0.2,0,0.3
			c0.4,0.4,0.7,0.8,1.1,1.1l0.1,0.1v10.2h16.1V38.5l1.5-1.5c0.5-0.5,1-1.1,1.5-1.6c0.5-0.5,1-1.1,1.5-1.6c0,0,0.1-0.1,0.1-0.2
			c0-0.1-0.1-0.2-0.3-0.2l-0.2,0c-0.5,0.1-0.9,0.2-1.3,0.3c-0.4,0.1-0.8,0.2-1.2,0.3c-0.4,0.1-0.8,0.3-1.2,0.4l-0.4,0.2v-2.5H57.5z
			 M71.6,46.8h-12v-6c0.4,0.4,0.8,0.8,1.1,1.2l1.1,1.1c0.4,0.4,0.7,0.8,1.1,1.1l1.2,1.2c0.8,0.8,2,0.8,2.7,0l0.5-0.5
			c0.3-0.3,0.5-0.5,0.8-0.8l0.8-0.8l2.7-2.7V46.8z M71.6,35.5l-0.2,0.1l-0.5,0.3c-0.3,0.2-0.7,0.4-1,0.6c-0.2,0.1-0.3,0.2-0.5,0.3
			c-0.2,0.1-0.3,0.2-0.5,0.3l-0.5,0.3L68,37.7c-0.3,0.2-0.6,0.4-0.9,0.7c-0.3,0.2-0.6,0.5-0.9,0.7c-0.3,0.2-0.6,0.5-0.8,0.7
			c-0.2,0.2-0.3,0.3-0.5,0.5l-0.2-0.1c-0.2-0.1-0.5-0.3-0.7-0.4c-0.2-0.1-0.5-0.3-0.7-0.4c-0.2-0.1-0.5-0.3-0.7-0.4
			c-0.3-0.1-0.5-0.2-0.8-0.4L61,38.3c-0.3-0.1-0.5-0.2-0.8-0.3c-0.2-0.1-0.4-0.2-0.7-0.2v-3.6h12V35.5z"/>
		<path id="XMLID_4_" class="st0" d="M77.9,55.7l-0.2,0c-0.5,0.1-0.9,0.2-1.3,0.3c-0.4,0.1-0.8,0.2-1.2,0.3
			c-0.4,0.1-0.8,0.3-1.2,0.4l-0.4,0.2v-2.5H57.5v5.1c-0.3-0.1-0.5-0.1-0.8-0.1l-0.2,0c-0.1,0-0.1,0-0.2,0.1c-0.1,0.1-0.1,0.2,0,0.3
			c0.4,0.4,0.7,0.8,1.1,1.2l0.1,0.1v10.2h16.1V60.8l1.5-1.5c0.5-0.5,1-1.1,1.5-1.6c0.5-0.5,1-1.1,1.5-1.6c0,0,0.1-0.1,0.1-0.2
			C78.2,55.7,78.1,55.6,77.9,55.7 M71.6,69h-12v-6c0.4,0.4,0.8,0.8,1.1,1.2l1.1,1.1c0.4,0.4,0.7,0.8,1.1,1.1l1.2,1.2
			c0.8,0.8,2,0.8,2.7,0l0.5-0.5c0.3-0.3,0.5-0.5,0.8-0.8l0.8-0.8l2.7-2.7V69z M71.6,57.8l-0.2,0.1l-0.5,0.3c-0.3,0.2-0.7,0.4-1,0.6
			c-0.2,0.1-0.3,0.2-0.5,0.3c-0.2,0.1-0.3,0.2-0.5,0.3l-0.5,0.3L68,60c-0.3,0.2-0.6,0.4-0.9,0.7c-0.3,0.2-0.6,0.5-0.9,0.7
			c-0.3,0.2-0.6,0.5-0.8,0.7c-0.2,0.2-0.3,0.3-0.5,0.5l-0.2-0.1c-0.2-0.1-0.5-0.3-0.7-0.4c-0.2-0.1-0.5-0.3-0.7-0.4
			c-0.2-0.1-0.5-0.3-0.7-0.4c-0.3-0.1-0.5-0.2-0.8-0.4L61,60.6c-0.3-0.1-0.5-0.2-0.8-0.3c-0.2-0.1-0.4-0.2-0.7-0.2v-3.6h12V57.8z"/>
		<path id="XMLID_5_" class="st0" d="M73.6,93.3V83l1.5-1.5c0.5-0.5,1-1.1,1.5-1.6c0.5-0.5,1-1.1,1.5-1.6c0,0,0.1-0.1,0.1-0.2
			c0-0.1-0.1-0.2-0.3-0.2l-0.2,0c-0.5,0.1-0.9,0.2-1.3,0.3c-0.4,0.1-0.8,0.2-1.2,0.3c-0.4,0.1-0.8,0.3-1.2,0.4l-0.4,0.2v-2.5H57.5
			v5.1c-0.3-0.1-0.5-0.1-0.8-0.1l-0.2,0c-0.1,0-0.1,0-0.2,0.1c-0.1,0.1-0.1,0.2,0,0.3c0.4,0.4,0.7,0.8,1.1,1.2l0.1,0.1v10.2H73.6z
			 M59.6,78.6h12v1.4l-0.2,0.1l-0.5,0.3c-0.3,0.2-0.7,0.4-1,0.6c-0.2,0.1-0.3,0.2-0.5,0.3c-0.2,0.1-0.3,0.2-0.5,0.3l-0.5,0.3
			L68,82.2c-0.3,0.2-0.6,0.4-0.9,0.7c-0.3,0.2-0.6,0.5-0.9,0.7c-0.3,0.2-0.6,0.5-0.8,0.7c-0.2,0.2-0.3,0.3-0.5,0.5l-0.2-0.1
			c-0.2-0.1-0.5-0.3-0.7-0.4c-0.2-0.1-0.5-0.3-0.7-0.4c-0.2-0.1-0.5-0.3-0.7-0.4c-0.3-0.1-0.5-0.2-0.8-0.4L61,82.8
			c-0.3-0.1-0.5-0.2-0.8-0.3c-0.2-0.1-0.4-0.2-0.7-0.2V78.6z M59.6,85.3c0.4,0.4,0.8,0.8,1.1,1.2l1.1,1.1c0.4,0.4,0.7,0.8,1.1,1.1
			l1.2,1.2c0.8,0.8,2,0.8,2.7,0l0.5-0.5c0.3-0.3,0.5-0.5,0.8-0.8l0.8-0.8l2.7-2.7v6.2h-12V85.3z"/>
		<rect id="XMLID_43_" x="32.4" y="40.4" class="st0" width="11.7" height="3.6"/>
		<rect id="XMLID_42_" x="32.4" y="56.4" class="st0" width="13.1" height="3.6"/>
		<rect id="XMLID_41_" x="32.4" y="78.6" class="st0" width="19.2" height="3.6"/>
	</g>
	<g id="XMLID_2_">
		<path id="XMLID_13_" class="st0" d="M43.2,19.1v1.4c0,0.6,0.5,1,1,1H47c0.6,0,1-0.5,1-1v-1c-1.3,0-2.7-0.1-4-0.1
			C43.7,19.4,43.4,19.3,43.2,19.1"/>
		<path id="XMLID_12_" class="st0" d="M58.9,19.5v1c0,0.6,0.5,1,1,1h2.8c0.6,0,1-0.5,1-1v-1.4c-0.2,0.1-0.5,0.2-0.8,0.2
			C61.6,19.4,60.3,19.5,58.9,19.5"/>
		<path id="XMLID_6_" class="st0" d="M65.2,9.9L64,10c-0.5,0-0.9,0.3-1.2,0.7l-1.5-2.9C60.9,6.8,60,6.2,59.1,6
			c-1.6-0.3-3.5-0.6-5.6-0.6c0,0-0.1,0-0.1,0c-2.1,0-3.9,0.2-5.5,0.6c-1,0.2-1.8,0.8-2.3,1.7c-0.5,1-1,2-1.5,2.9
			c-0.3-0.4-0.7-0.6-1.2-0.7l-1.2-0.1c-0.6-0.1-1.2,0.4-1.2,1c-0.1,0.6,0.4,1.2,1,1.2l1.8,0.2c-0.3,0.7-0.4,1.5-0.4,2.3v3.1
			c0,0.6,0.5,1.2,1.2,1.2c3,0.1,6.1,0.2,9.4,0.2h0.1c3.3,0,6.4-0.1,9.5-0.2c0.6,0,1.2-0.6,1.2-1.2v-3.1c0-0.8-0.1-1.6-0.4-2.3
			l1.8-0.2c0.6-0.1,1.1-0.6,1-1.2C66.4,10.3,65.8,9.8,65.2,9.9 M46.6,8.2c0.3-0.6,0.8-1,1.5-1.1c1.7-0.3,3.5-0.5,5.2-0.5
			c0,0,0.1,0,0.1,0c1.8,0,3.6,0.2,5.4,0.5c0.7,0.1,1.2,0.5,1.5,1.1l1.4,2.4c-2.6-0.2-5.5-0.4-8.6-0.4c-3.2,0-5.1,0.2-7.8,0.4
			C45.6,10.1,46.6,8.2,46.6,8.2 M48.7,15.5C48.7,15.5,48.7,15.5,48.7,15.5c0,0.2-0.2,0.4-0.4,0.4c0,0,0,0,0,0
			c-0.4,0.1-0.9,0.1-1.4,0.1c-0.3,0-0.5,0-0.7-0.1c-0.4-0.1-0.9-0.2-1.3-0.5c-0.2-0.2-0.4-0.4-0.4-0.7l0-0.9c0-0.2,0.1-0.3,0.3-0.4
			c0,0,0,0,0.1,0c0.2,0,0.5,0,0.7-0.1c0.3,0,0.5,0,0.8,0.2c0.1,0.1,0.3,0.2,0.5,0.3c0.5,0.3,0.7,0.4,1.1,0.6
			c0.2,0.1,0.4,0.2,0.7,0.4c0.1,0.1,0.2,0.2,0.2,0.4C48.7,15.4,48.7,15.5,48.7,15.5 M57.1,18.2c0,0.2-0.2,0.4-0.4,0.4h-6.3
			c-0.2,0-0.4-0.2-0.4-0.4v-0.4c0-0.2,0.2-0.4,0.4-0.4h6.3c0.2,0,0.4,0.2,0.4,0.4V18.2z M62.4,15.6C62,15.8,61.6,16,61.1,16
			c-0.2,0-0.5,0.1-0.7,0.1c-0.5,0-1,0-1.4-0.1c0,0,0,0,0,0c-0.2-0.1-0.4-0.2-0.4-0.4c0,0,0,0,0,0c0-0.1,0-0.1,0-0.2
			c0-0.2,0.1-0.3,0.2-0.4c0.3-0.2,0.5-0.3,0.7-0.4c0.4-0.2,0.6-0.3,1.1-0.6c0.2-0.1,0.3-0.2,0.5-0.3c0.2-0.1,0.5-0.2,0.8-0.2
			c0.2,0,0.5,0,0.7,0.1c0,0,0,0,0.1,0c0.2,0,0.3,0.2,0.3,0.4l0,0.9C62.7,15.2,62.6,15.4,62.4,15.6"/>
	</g>
</g>
</svg>
